<mxfile host="app.diagrams.net" agent="Mozilla/5.0 (Windows NT 10.0; Win64; x64) AppleWebKit/537.36 (KHTML, like Gecko) Chrome/135.0.0.0 Safari/537.36 OPR/120.0.0.0" version="28.0.0">
  <diagram id="twWw_i1XGfi5nnG44Sy-" name="Page-1">
    <mxGraphModel dx="2185" dy="830" grid="1" gridSize="10" guides="1" tooltips="1" connect="1" arrows="1" fold="1" page="0" pageScale="1" pageWidth="850" pageHeight="1100" background="none" math="0" shadow="0">
      <root>
        <mxCell id="0" />
        <mxCell id="1" parent="0" />
        <mxCell id="node7" value="&lt;p style=&quot;margin:0px;margin-top:4px;text-align:center;&quot;&gt;&lt;b&gt;Availability&lt;/b&gt;&lt;/p&gt;&lt;hr size=&quot;1&quot;/&gt;&lt;p style=&quot;margin:0 0 0 4px;line-height:1.6;&quot;&gt;- availabilityId: String&lt;br/&gt;- startTime: String&lt;br/&gt;- dayOfWeek: String&lt;br/&gt;- endTime: String&lt;/p&gt;" style="verticalAlign=top;align=left;overflow=fill;fontSize=14;fontFamily=Helvetica;html=1;rounded=0;shadow=0;comic=0;labelBackgroundColor=none;strokeWidth=1;" parent="1" vertex="1">
          <mxGeometry x="-200" y="880" width="163" height="146" as="geometry" />
        </mxCell>
        <mxCell id="node8" value="&lt;p style=&quot;margin:0px;margin-top:4px;text-align:center;&quot;&gt;&lt;b&gt;Payment&lt;/b&gt;&lt;/p&gt;&lt;hr size=&quot;1&quot;/&gt;&lt;p style=&quot;margin:0 0 0 4px;line-height:1.6;&quot;&gt;- paymentID: String&lt;br/&gt;- amount: double&lt;br/&gt;- transactionID: String&lt;br/&gt;- paymentDate: LocalDateTime&lt;br/&gt;- status: String&lt;br/&gt;- paymentMethod: String&lt;/p&gt;" style="verticalAlign=top;align=left;overflow=fill;fontSize=14;fontFamily=Helvetica;html=1;rounded=0;shadow=0;comic=0;labelBackgroundColor=none;strokeWidth=1;" parent="1" vertex="1">
          <mxGeometry x="320" y="1010" width="226" height="183" as="geometry" />
        </mxCell>
        <mxCell id="node1" value="&lt;p style=&quot;margin:0px;margin-top:4px;text-align:center;&quot;&gt;&lt;b&gt;Review&lt;/b&gt;&lt;/p&gt;&lt;hr size=&quot;1&quot;/&gt;&lt;p style=&quot;margin:0 0 0 4px;line-height:1.6;&quot;&gt;- rating: int&lt;br/&gt;- dateSubmitted: LocalDateTime&lt;br/&gt;- reviewID: String&lt;br/&gt;- comment: String&lt;/p&gt;" style="verticalAlign=top;align=left;overflow=fill;fontSize=14;fontFamily=Helvetica;html=1;rounded=0;shadow=0;comic=0;labelBackgroundColor=none;strokeWidth=1;" parent="1" vertex="1">
          <mxGeometry x="-404" y="1110" width="235" height="146" as="geometry" />
        </mxCell>
        <mxCell id="node6" value="&lt;p style=&quot;margin:0px;margin-top:4px;text-align:center;&quot;&gt;&lt;b&gt;Session&lt;/b&gt;&lt;/p&gt;&lt;hr size=&quot;1&quot;/&gt;&lt;p style=&quot;margin:0 0 0 4px;line-height:1.6;&quot;&gt;- mode: String&lt;br/&gt;- status: String&lt;br/&gt;- startTime: LocalDateTime&lt;br/&gt;- sessionId: String&lt;br/&gt;- endTime: LocalDateTime&lt;br/&gt;- location: String&lt;br/&gt;- cost: double&lt;br/&gt;- notes: String&lt;/p&gt;" style="verticalAlign=top;align=left;overflow=fill;fontSize=14;fontFamily=Helvetica;html=1;rounded=0;shadow=0;comic=0;labelBackgroundColor=none;strokeWidth=1;" parent="1" vertex="1">
          <mxGeometry x="68" y="837.5" width="202" height="231" as="geometry" />
        </mxCell>
        <mxCell id="node3" value="&lt;p style=&quot;margin:0px;margin-top:4px;text-align:center;&quot;&gt;&lt;b&gt;Student&lt;/b&gt;&lt;/p&gt;&lt;hr size=&quot;1&quot;/&gt;&lt;p style=&quot;margin:0 0 0 4px;line-height:1.6;&quot;&gt;- studentID: String&lt;br/&gt;- studentCourse: String&lt;br/&gt;- studentNumber: String&lt;br/&gt;- yearOfStudy: String&lt;/p&gt;" style="verticalAlign=top;align=left;overflow=fill;fontSize=14;fontFamily=Helvetica;html=1;rounded=0;shadow=0;comic=0;labelBackgroundColor=none;strokeWidth=1;" parent="1" vertex="1">
          <mxGeometry x="270" y="550" width="188" height="146" as="geometry" />
        </mxCell>
        <mxCell id="node9" value="&lt;p style=&quot;margin:0px;margin-top:4px;text-align:center;&quot;&gt;&lt;b&gt;Subject&lt;/b&gt;&lt;/p&gt;&lt;hr size=&quot;1&quot;/&gt;&lt;p style=&quot;margin:0 0 0 4px;line-height:1.6;&quot;&gt;- department: String&lt;br/&gt;- subjectCode: String&lt;br/&gt;- difficultyLevel: String&lt;br/&gt;- subjectDescription: String&lt;br/&gt;- subjectName: String&lt;/p&gt;" style="verticalAlign=top;align=left;overflow=fill;fontSize=14;fontFamily=Helvetica;html=1;rounded=0;shadow=0;comic=0;labelBackgroundColor=none;strokeWidth=1;" parent="1" vertex="1">
          <mxGeometry x="-560" y="652" width="206" height="159" as="geometry" />
        </mxCell>
        <mxCell id="node2" value="&lt;p style=&quot;margin:0px;margin-top:4px;text-align:center;&quot;&gt;&lt;b&gt;Tutor&lt;/b&gt;&lt;/p&gt;&lt;hr size=&quot;1&quot;/&gt;&lt;p style=&quot;margin:0 0 0 4px;line-height:1.6;&quot;&gt;- tutorID: String&lt;br/&gt;- bio: String&lt;br/&gt;- averageRating: double&lt;br/&gt;- verificationStatus: boolean&lt;br/&gt;- hourlyRate: double&lt;/p&gt;" style="verticalAlign=top;align=left;overflow=fill;fontSize=14;fontFamily=Helvetica;html=1;rounded=0;shadow=0;comic=0;labelBackgroundColor=none;strokeWidth=1;" parent="1" vertex="1">
          <mxGeometry x="-310" y="550" width="211" height="159" as="geometry" />
        </mxCell>
        <mxCell id="node4" value="&lt;p style=&quot;margin:0px;margin-top:4px;text-align:center;&quot;&gt;&lt;b&gt;TutorSubject&lt;/b&gt;&lt;/p&gt;&lt;hr size=&quot;1&quot;/&gt;&lt;p style=&quot;margin:0 0 0 4px;line-height:1.6;&quot;&gt;- studentSubjectId: String&lt;br/&gt;- proficiencyLevel: String&lt;br/&gt;- tutorID: String&lt;br/&gt;- specializedRate: double&lt;/p&gt;" style="verticalAlign=top;align=left;overflow=fill;fontSize=14;fontFamily=Helvetica;html=1;rounded=0;shadow=0;comic=0;labelBackgroundColor=none;strokeWidth=1;" parent="1" vertex="1">
          <mxGeometry x="-490" y="864" width="196" height="146" as="geometry" />
        </mxCell>
        <mxCell id="node5" value="&lt;p style=&quot;margin:0px;margin-top:4px;text-align:center;&quot;&gt;&lt;b&gt;User&lt;/b&gt;&lt;/p&gt;&lt;hr size=&quot;1&quot;/&gt;&lt;p style=&quot;margin:0 0 0 4px;line-height:1.6;&quot;&gt;# password: String&lt;br/&gt;# createdAt: ZonedDateTime&lt;br/&gt;# firstName: String&lt;br/&gt;# phoneNumber: String&lt;br/&gt;# userId: String&lt;br/&gt;# email: String&lt;br/&gt;# lastName: String&lt;/p&gt;" style="verticalAlign=top;align=left;overflow=fill;fontSize=14;fontFamily=Helvetica;html=1;rounded=0;shadow=0;comic=0;labelBackgroundColor=none;strokeWidth=1;" parent="1" vertex="1">
          <mxGeometry y="220" width="213" height="207" as="geometry" />
        </mxCell>
        <mxCell id="-FhMREzkrYcg1D7cDLaA-1" value="" style="endArrow=classic;html=1;rounded=0;entryX=0.468;entryY=-0.027;entryDx=0;entryDy=0;entryPerimeter=0;" edge="1" parent="1" target="node3">
          <mxGeometry width="50" height="50" relative="1" as="geometry">
            <mxPoint x="213" y="340" as="sourcePoint" />
            <mxPoint x="263" y="290" as="targetPoint" />
            <Array as="points">
              <mxPoint x="358" y="340" />
            </Array>
          </mxGeometry>
        </mxCell>
        <mxCell id="-FhMREzkrYcg1D7cDLaA-2" value="" style="endArrow=classic;html=1;rounded=0;exitX=-0.014;exitY=0.546;exitDx=0;exitDy=0;exitPerimeter=0;entryX=0.668;entryY=-0.025;entryDx=0;entryDy=0;entryPerimeter=0;" edge="1" parent="1" source="node5" target="node2">
          <mxGeometry width="50" height="50" relative="1" as="geometry">
            <mxPoint x="-310" y="280" as="sourcePoint" />
            <mxPoint x="-200" y="450" as="targetPoint" />
            <Array as="points">
              <mxPoint x="-170" y="330" />
            </Array>
          </mxGeometry>
        </mxCell>
        <mxCell id="-FhMREzkrYcg1D7cDLaA-3" value="" style="endArrow=classic;html=1;rounded=0;exitX=1;exitY=0.25;exitDx=0;exitDy=0;entryX=0.5;entryY=0;entryDx=0;entryDy=0;" edge="1" parent="1" source="node2" target="node0">
          <mxGeometry width="50" height="50" relative="1" as="geometry">
            <mxPoint x="-20" y="590" as="sourcePoint" />
            <mxPoint x="30" y="540" as="targetPoint" />
            <Array as="points">
              <mxPoint x="83" y="590" />
            </Array>
          </mxGeometry>
        </mxCell>
        <mxCell id="-FhMREzkrYcg1D7cDLaA-5" value="" style="endArrow=classic;html=1;rounded=0;exitX=0;exitY=0.5;exitDx=0;exitDy=0;entryX=1;entryY=0.5;entryDx=0;entryDy=0;" edge="1" parent="1" source="node3" target="node0">
          <mxGeometry width="50" height="50" relative="1" as="geometry">
            <mxPoint x="15.5" y="550" as="sourcePoint" />
            <mxPoint x="197.5" y="600" as="targetPoint" />
            <Array as="points">
              <mxPoint x="250" y="703" />
            </Array>
          </mxGeometry>
        </mxCell>
        <mxCell id="-FhMREzkrYcg1D7cDLaA-6" value="" style="endArrow=classic;html=1;rounded=0;" edge="1" parent="1" source="node0">
          <mxGeometry width="50" height="50" relative="1" as="geometry">
            <mxPoint x="-20" y="790" as="sourcePoint" />
            <mxPoint x="30" y="740" as="targetPoint" />
          </mxGeometry>
        </mxCell>
        <mxCell id="node0" value="&lt;p style=&quot;margin:0px;margin-top:4px;text-align:center;&quot;&gt;&lt;b&gt;University&lt;/b&gt;&lt;/p&gt;&lt;hr size=&quot;1&quot;/&gt;&lt;p style=&quot;margin:0 0 0 4px;line-height:1.6;&quot;&gt;- universityId: String&lt;br/&gt;- domain: String&lt;br/&gt;- location: String&lt;br/&gt;- universityName: String&lt;/p&gt;" style="verticalAlign=top;align=left;overflow=fill;fontSize=14;fontFamily=Helvetica;html=1;rounded=0;shadow=0;comic=0;labelBackgroundColor=none;strokeWidth=1;" parent="1" vertex="1">
          <mxGeometry x="-10" y="630" width="186" height="146" as="geometry" />
        </mxCell>
        <mxCell id="-FhMREzkrYcg1D7cDLaA-8" value="" style="endArrow=classic;html=1;rounded=0;exitX=1;exitY=0.75;exitDx=0;exitDy=0;" edge="1" parent="1" source="node2">
          <mxGeometry width="50" height="50" relative="1" as="geometry">
            <mxPoint x="-120" y="830" as="sourcePoint" />
            <mxPoint x="60" y="870" as="targetPoint" />
            <Array as="points">
              <mxPoint x="-20" y="870" />
            </Array>
          </mxGeometry>
        </mxCell>
        <mxCell id="-FhMREzkrYcg1D7cDLaA-10" value="" style="endArrow=classic;html=1;rounded=0;exitX=0.853;exitY=0.981;exitDx=0;exitDy=0;exitPerimeter=0;" edge="1" parent="1" source="node2">
          <mxGeometry width="50" height="50" relative="1" as="geometry">
            <mxPoint x="-130" y="780" as="sourcePoint" />
            <mxPoint x="-130" y="880" as="targetPoint" />
            <Array as="points" />
          </mxGeometry>
        </mxCell>
        <mxCell id="-FhMREzkrYcg1D7cDLaA-11" value="" style="endArrow=classic;html=1;rounded=0;exitX=0.853;exitY=0.981;exitDx=0;exitDy=0;exitPerimeter=0;entryX=0.626;entryY=-0.021;entryDx=0;entryDy=0;entryPerimeter=0;" edge="1" parent="1" target="node1">
          <mxGeometry width="50" height="50" relative="1" as="geometry">
            <mxPoint x="-260" y="709" as="sourcePoint" />
            <mxPoint x="-260" y="883" as="targetPoint" />
            <Array as="points" />
          </mxGeometry>
        </mxCell>
        <mxCell id="-FhMREzkrYcg1D7cDLaA-13" value="" style="endArrow=classic;html=1;rounded=0;" edge="1" parent="1">
          <mxGeometry width="50" height="50" relative="1" as="geometry">
            <mxPoint x="-306" y="709" as="sourcePoint" />
            <mxPoint x="-306" y="860" as="targetPoint" />
            <Array as="points" />
          </mxGeometry>
        </mxCell>
        <mxCell id="-FhMREzkrYcg1D7cDLaA-14" value="" style="endArrow=classic;html=1;rounded=0;entryX=0;entryY=0.5;entryDx=0;entryDy=0;" edge="1" parent="1" target="node4">
          <mxGeometry width="50" height="50" relative="1" as="geometry">
            <mxPoint x="-530" y="811" as="sourcePoint" />
            <mxPoint x="-530" y="871" as="targetPoint" />
            <Array as="points">
              <mxPoint x="-530" y="937" />
            </Array>
          </mxGeometry>
        </mxCell>
        <mxCell id="-FhMREzkrYcg1D7cDLaA-15" value="" style="endArrow=classic;html=1;rounded=0;exitX=1;exitY=0.5;exitDx=0;exitDy=0;entryX=0.5;entryY=0;entryDx=0;entryDy=0;" edge="1" parent="1" source="node6" target="node8">
          <mxGeometry width="50" height="50" relative="1" as="geometry">
            <mxPoint x="320" y="962" as="sourcePoint" />
            <mxPoint x="370" y="912" as="targetPoint" />
            <Array as="points">
              <mxPoint x="433" y="950" />
            </Array>
          </mxGeometry>
        </mxCell>
        <mxCell id="-FhMREzkrYcg1D7cDLaA-16" value="" style="endArrow=classic;html=1;rounded=0;exitX=0.47;exitY=1.015;exitDx=0;exitDy=0;exitPerimeter=0;entryX=1;entryY=0.5;entryDx=0;entryDy=0;" edge="1" parent="1" source="node6" target="node1">
          <mxGeometry width="50" height="50" relative="1" as="geometry">
            <mxPoint x="120" y="1170" as="sourcePoint" />
            <mxPoint x="120" y="1220" as="targetPoint" />
            <Array as="points">
              <mxPoint x="163" y="1183" />
            </Array>
          </mxGeometry>
        </mxCell>
        <mxCell id="-FhMREzkrYcg1D7cDLaA-17" value="" style="endArrow=classic;html=1;rounded=0;exitX=1;exitY=0.5;exitDx=0;exitDy=0;entryX=1.013;entryY=0.863;entryDx=0;entryDy=0;entryPerimeter=0;" edge="1" parent="1" source="node3" target="node1">
          <mxGeometry width="50" height="50" relative="1" as="geometry">
            <mxPoint x="530" y="670" as="sourcePoint" />
            <mxPoint x="610" y="1340" as="targetPoint" />
            <Array as="points">
              <mxPoint x="600" y="620" />
              <mxPoint x="610" y="1230" />
            </Array>
          </mxGeometry>
        </mxCell>
      </root>
    </mxGraphModel>
  </diagram>
</mxfile>
